<!-- Generator: Adobe Illustrator 21.1.0, SVG Export Plug-In . SVG Version: 6.00 Build 0)  -->
<svg version="1.1" id="Layer_1" xmlns="http://www.w3.org/2000/svg" xmlns:xlink="http://www.w3.org/1999/xlink" x="0px" y="0px"
	 viewBox="0 0 674.1 64" style="enable-background:new 0 0 674.1 64;" xml:space="preserve">
<path d="M7.1,24.2c0,1.7,0.7,3,2.1,3.8c1.4,0.9,4,1.5,7.8,1.8c4.1,0.3,7.2,1.3,9.3,2.9c2.1,1.6,3.2,4,3.2,7v0.4c0,1.7-0.3,3.2-1,4.5
	c-0.7,1.3-1.6,2.5-2.8,3.4c-1.2,0.9-2.6,1.6-4.3,2.1c-1.7,0.5-3.6,0.7-5.6,0.7c-2.7,0-5-0.4-7-1.1C6.9,49.2,5.3,48.2,4,47
	c-1.3-1.2-2.3-2.5-2.9-4.1c-0.7-1.5-1-3-1.1-4.6l5.2-1.3c0.2,2.7,1.3,4.8,3.1,6.4c1.8,1.6,4.2,2.4,7.3,2.4c2.6,0,4.6-0.5,6.2-1.5
	c1.6-1,2.3-2.4,2.3-4.2c0-2-0.8-3.4-2.3-4.2s-4-1.4-7.5-1.6c-4-0.3-7.1-1.2-9.2-2.8c-2.1-1.6-3.2-3.9-3.2-6.9v-0.4
	c0-1.6,0.4-3.1,1-4.3c0.7-1.2,1.6-2.3,2.8-3.1c1.2-0.8,2.5-1.5,4-1.9c1.5-0.4,3.1-0.6,4.7-0.6c2.3,0,4.3,0.3,6,0.9
	c1.7,0.6,3.2,1.4,4.3,2.4c1.2,1,2.1,2.2,2.7,3.5c0.6,1.3,1,2.6,1.2,3.9l-5.2,1.3c-0.2-2.2-1.1-4-2.7-5.2c-1.6-1.3-3.6-1.9-6.1-1.9
	c-1,0-1.9,0.1-2.8,0.3c-0.9,0.2-1.7,0.5-2.4,0.9c-0.7,0.4-1.3,0.9-1.7,1.6C7.3,22.6,7.1,23.4,7.1,24.2z"/>
<path d="M69.9,33c0,2.9-0.5,5.4-1.4,7.7c-1,2.2-2.2,4.1-3.8,5.6C63,47.8,61.2,49,59,49.8c-2.1,0.8-4.3,1.2-6.6,1.2
	c-2.3,0-4.5-0.4-6.6-1.2s-3.9-1.9-5.5-3.5c-1.6-1.5-2.9-3.4-3.8-5.6c-1-2.2-1.4-4.8-1.4-7.7v-0.8c0-2.8,0.5-5.4,1.4-7.6
	c1-2.2,2.2-4.1,3.9-5.6c1.6-1.5,3.5-2.7,5.6-3.5c2.1-0.8,4.3-1.2,6.6-1.2c2.3,0,4.5,0.4,6.6,1.2c2.1,0.8,4,2,5.6,3.5
	c1.6,1.5,2.9,3.4,3.9,5.6c1,2.2,1.4,4.7,1.4,7.6V33z M52.4,45.8c1.7,0,3.2-0.3,4.7-0.9c1.4-0.6,2.7-1.4,3.7-2.6
	c1.1-1.1,1.9-2.5,2.5-4c0.6-1.6,0.9-3.3,0.9-5.3v-0.8c0-1.9-0.3-3.6-0.9-5.1c-0.6-1.6-1.4-2.9-2.5-4c-1.1-1.1-2.3-2-3.8-2.6
	c-1.4-0.6-3-0.9-4.6-0.9c-1.6,0-3.2,0.3-4.6,0.9C46.4,21,45.1,21.9,44,23c-1.1,1.1-1.9,2.5-2.5,4c-0.6,1.6-0.9,3.3-0.9,5.1V33
	c0,2,0.3,3.7,0.9,5.3c0.6,1.6,1.4,2.9,2.5,4c1.1,1.1,2.3,2,3.7,2.6C49.2,45.5,50.8,45.8,52.4,45.8z"/>
<path d="M112,50h-5.5V25.1c0-1.6-0.4-3-1.1-4c-0.7-1-1.9-1.6-3.6-1.6c-1.5,0-2.8,0.6-3.7,1.7c-1,1.1-1.4,2.9-1.4,5.3V50h-5.5V24.8
	c0-1.5-0.4-2.8-1.3-3.8c-0.8-1-2-1.5-3.4-1.5c-1.7,0-3,0.6-3.9,1.8c-0.9,1.2-1.4,2.8-1.4,4.8V50h-5.5V15.3h5.5V19h0.8
	c0.6-1.6,1.5-2.8,2.7-3.6c1.2-0.8,2.5-1.2,4.1-1.2c1.7,0,3.1,0.4,4.2,1.3c1.1,0.9,1.9,2,2.3,3.4h0.8c1.6-3.2,4.1-4.8,7.6-4.8
	c2.6,0,4.6,0.8,6.1,2.5c1.4,1.7,2.1,3.8,2.1,6.5V50z"/>
<path d="M124.5,34.3c0.1,3.5,1.2,6.2,3.2,8.3c2,2.1,4.8,3.2,8.4,3.2c1.6,0,3.1-0.2,4.3-0.6c1.2-0.4,2.3-0.9,3.1-1.5
	c0.9-0.7,1.6-1.4,2.1-2.3c0.5-0.9,1-1.8,1.3-2.8l5.2,1.4c-1,3.2-2.8,5.8-5.4,7.9c-2.6,2-6.2,3-10.7,3c-2.5,0-4.7-0.4-6.8-1.3
	c-2.1-0.9-3.9-2.1-5.4-3.7c-1.5-1.6-2.7-3.5-3.5-5.7c-0.8-2.2-1.3-4.6-1.3-7.3v-1.7c0-2.4,0.4-4.7,1.3-6.8c0.9-2.1,2.1-3.9,3.6-5.4
	s3.3-2.7,5.4-3.6c2.1-0.9,4.3-1.3,6.8-1.3c2.8,0,5.3,0.5,7.4,1.6c2.1,1,3.8,2.3,5.1,3.9c1.3,1.5,2.3,3.2,2.9,5
	c0.6,1.8,0.9,3.5,0.9,5v4.5H124.5z M136.1,19.5c-1.5,0-3,0.2-4.3,0.7s-2.5,1.2-3.5,2.1c-1,0.9-1.8,1.9-2.5,3.1
	c-0.6,1.2-1,2.5-1.2,3.9H147c-0.1-1.5-0.5-2.8-1.1-4.1c-0.6-1.2-1.4-2.2-2.5-3.1c-1-0.8-2.1-1.5-3.4-2
	C138.8,19.7,137.5,19.5,136.1,19.5z"/>
<path d="M165.2,50h-5.5V1h5.5v19.7h0.8c1.2-2.1,2.9-3.7,5-4.8c2.1-1.1,4.5-1.6,7-1.6c2.1,0,4.2,0.4,6.1,1.2c1.9,0.8,3.6,1.9,5.1,3.4
	c1.5,1.5,2.6,3.3,3.5,5.5c0.9,2.2,1.3,4.7,1.3,7.5v1.4c0,2.8-0.4,5.4-1.3,7.6c-0.8,2.2-2,4-3.5,5.5c-1.5,1.5-3.2,2.6-5.1,3.4
	c-2,0.8-4,1.2-6.2,1.2c-1.1,0-2.3-0.1-3.4-0.4c-1.2-0.3-2.3-0.7-3.3-1.2c-1-0.5-2-1.2-2.9-2c-0.9-0.8-1.6-1.7-2.2-2.8h-0.8V50z
	 M176.8,45.8c1.7,0,3.2-0.3,4.6-0.9c1.4-0.6,2.6-1.4,3.7-2.5c1-1.1,1.9-2.4,2.4-3.9c0.6-1.5,0.9-3.3,0.9-5.2v-1.4
	c0-1.9-0.3-3.6-0.9-5.1c-0.6-1.5-1.4-2.8-2.4-3.9c-1.1-1.1-2.3-1.9-3.7-2.6c-1.4-0.6-3-0.9-4.6-0.9c-1.6,0-3.2,0.3-4.6,0.9
	s-2.6,1.5-3.7,2.6c-1.1,1.1-1.9,2.5-2.5,4c-0.6,1.6-0.9,3.3-0.9,5.1V33c0,1.9,0.3,3.7,0.9,5.2c0.6,1.6,1.4,2.9,2.5,4
	c1,1.1,2.3,2,3.7,2.6C173.6,45.5,175.1,45.8,176.8,45.8z"/>
<path d="M233.5,33c0,2.9-0.5,5.4-1.4,7.7c-1,2.2-2.2,4.1-3.8,5.6c-1.6,1.5-3.4,2.7-5.6,3.5c-2.1,0.8-4.3,1.2-6.6,1.2
	c-2.3,0-4.5-0.4-6.6-1.2s-3.9-1.9-5.5-3.5c-1.6-1.5-2.9-3.4-3.8-5.6c-1-2.2-1.4-4.8-1.4-7.7v-0.8c0-2.8,0.5-5.4,1.4-7.6
	c1-2.2,2.2-4.1,3.9-5.6c1.6-1.5,3.5-2.7,5.6-3.5c2.1-0.8,4.3-1.2,6.6-1.2c2.3,0,4.5,0.4,6.6,1.2c2.1,0.8,4,2,5.6,3.5
	c1.6,1.5,2.9,3.4,3.9,5.6c1,2.2,1.4,4.7,1.4,7.6V33z M216,45.8c1.7,0,3.2-0.3,4.7-0.9c1.4-0.6,2.7-1.4,3.7-2.6
	c1.1-1.1,1.9-2.5,2.5-4c0.6-1.6,0.9-3.3,0.9-5.3v-0.8c0-1.9-0.3-3.6-0.9-5.1c-0.6-1.6-1.4-2.9-2.5-4c-1.1-1.1-2.3-2-3.8-2.6
	c-1.4-0.6-3-0.9-4.6-0.9c-1.6,0-3.2,0.3-4.6,0.9c-1.4,0.6-2.7,1.5-3.8,2.6c-1.1,1.1-1.9,2.5-2.5,4c-0.6,1.6-0.9,3.3-0.9,5.1V33
	c0,2,0.3,3.7,0.9,5.3c0.6,1.6,1.4,2.9,2.5,4c1.1,1.1,2.3,2,3.7,2.6C212.8,45.5,214.3,45.8,216,45.8z"/>
<path d="M267.3,44.7h-0.8c-0.6,1.1-1.3,2-2.1,2.8c-0.9,0.8-1.8,1.4-2.8,2c-1,0.5-2.1,0.9-3.2,1.2c-1.1,0.3-2.2,0.4-3.2,0.4
	c-2.3,0-4.5-0.4-6.5-1.2c-2-0.8-3.8-1.9-5.3-3.4c-1.5-1.5-2.7-3.3-3.6-5.6c-0.9-2.2-1.3-4.7-1.3-7.6v-1.1c0-2.8,0.4-5.3,1.3-7.5
	c0.9-2.2,2.1-4.1,3.6-5.6c1.5-1.5,3.2-2.7,5.2-3.5c2-0.8,4.1-1.2,6.4-1.2c2.4,0,4.6,0.5,6.7,1.6c2.1,1,3.7,2.7,4.8,4.9h0.8V1h5.5v49
	h-5.5V44.7z M255.7,45.8c1.6,0,3.1-0.3,4.5-0.9c1.4-0.6,2.6-1.5,3.7-2.6c1-1.1,1.9-2.5,2.5-4c0.6-1.6,0.9-3.3,0.9-5.2v-0.8
	c0-1.9-0.3-3.6-0.9-5.1c-0.6-1.6-1.4-2.9-2.5-4c-1.1-1.1-2.3-2-3.7-2.6c-1.4-0.6-2.9-0.9-4.5-0.9c-1.6,0-3.2,0.3-4.6,0.9
	c-1.4,0.6-2.7,1.5-3.7,2.6c-1.1,1.1-1.9,2.5-2.5,4c-0.6,1.5-0.9,3.2-0.9,5.1v1.1c0,2,0.3,3.7,0.9,5.2c0.6,1.5,1.4,2.9,2.5,4
	c1,1.1,2.3,1.9,3.7,2.5C252.5,45.5,254,45.8,255.7,45.8z"/>
<path d="M305.8,43.7h-0.8c-1.1,2.2-2.6,4-4.4,5.3c-1.8,1.3-4.1,2-6.9,2c-1.9,0-3.7-0.3-5.3-0.9c-1.6-0.6-3-1.6-4.1-2.8
	c-1.1-1.3-2-2.8-2.7-4.7c-0.6-1.9-0.9-4-0.9-6.5V15.3h5.5v20c0,3.6,0.7,6.3,2.2,8c1.5,1.7,3.8,2.5,6.9,2.5c3.3,0,5.9-1.1,7.8-3.4
	c1.9-2.3,2.8-5.3,2.8-9.1V15.3h5.5v43.3c0,1.6-0.5,2.9-1.5,3.9c-1,1-2.3,1.5-3.9,1.5H286v-5h17.9c1.3,0,1.9-0.7,1.9-2.1V43.7z"/>
<path d="M315.6,4.9c0-1.4,0.5-2.5,1.4-3.5c1-1,2.1-1.4,3.5-1.4c1.4,0,2.5,0.5,3.5,1.4c1,1,1.4,2.1,1.4,3.5v6.9
	c0,1.6-0.5,2.9-1.5,3.9c-1,1-2.3,1.5-3.9,1.5h-3.6v-3.8h3.3c1.3,0,1.9-0.7,1.9-2.1V9.6c-0.4,0.1-0.8,0.2-1.2,0.2
	c-1.3,0-2.4-0.5-3.4-1.4C316.1,7.4,315.6,6.3,315.6,4.9z"/>
<path d="M333,24.2c0,1.7,0.7,3,2.1,3.8c1.4,0.9,4,1.5,7.8,1.8c4.1,0.3,7.2,1.3,9.3,2.9c2.1,1.6,3.2,4,3.2,7v0.4c0,1.7-0.3,3.2-1,4.5
	c-0.7,1.3-1.6,2.5-2.8,3.4c-1.2,0.9-2.6,1.6-4.3,2.1c-1.7,0.5-3.6,0.7-5.6,0.7c-2.7,0-5-0.4-7-1.1c-1.9-0.7-3.5-1.7-4.8-2.9
	c-1.3-1.2-2.3-2.5-2.9-4.1c-0.7-1.5-1-3-1.1-4.6l5.2-1.3c0.2,2.7,1.3,4.8,3.1,6.4c1.8,1.6,4.2,2.4,7.3,2.4c2.6,0,4.6-0.5,6.2-1.5
	c1.6-1,2.3-2.4,2.3-4.2c0-2-0.8-3.4-2.3-4.2c-1.5-0.8-4-1.4-7.5-1.6c-4-0.3-7.1-1.2-9.2-2.8c-2.1-1.6-3.2-3.9-3.2-6.9v-0.4
	c0-1.6,0.3-3.1,1.1-4.3c0.7-1.2,1.6-2.3,2.8-3.1c1.2-0.8,2.5-1.5,4-1.9c1.5-0.4,3.1-0.6,4.7-0.6c2.3,0,4.3,0.3,6,0.9
	s3.2,1.4,4.3,2.4c1.2,1,2.1,2.2,2.7,3.5c0.6,1.3,1,2.6,1.2,3.9l-5.2,1.3c-0.2-2.2-1.1-4-2.7-5.2c-1.6-1.3-3.6-1.9-6.1-1.9
	c-1,0-1.9,0.1-2.8,0.3s-1.7,0.5-2.4,0.9c-0.7,0.4-1.3,0.9-1.7,1.6C333.2,22.6,333,23.4,333,24.2z"/>
<path d="M392.5,51.1l-5.5,0l-0.4-49l5.5,0l0.2,19.7l0.8,0c1.2-2.1,2.9-3.7,5-4.8c2.1-1.1,4.5-1.7,7-1.7c2.1,0,4.2,0.4,6.1,1.1
	c1.9,0.8,3.6,1.9,5.1,3.4c1.5,1.5,2.7,3.3,3.5,5.5c0.9,2.2,1.3,4.7,1.4,7.5l0,1.4c0,2.8-0.4,5.4-1.2,7.6c-0.8,2.2-2,4.1-3.4,5.6
	c-1.5,1.5-3.2,2.7-5.1,3.4c-2,0.8-4,1.2-6.2,1.2c-1.1,0-2.3-0.1-3.4-0.4c-1.2-0.2-2.3-0.6-3.3-1.2c-1.1-0.5-2-1.2-2.9-1.9
	c-0.9-0.8-1.6-1.7-2.3-2.7l-0.8,0L392.5,51.1z M404,46.8c1.7,0,3.2-0.3,4.6-0.9c1.4-0.6,2.6-1.4,3.7-2.5c1-1.1,1.8-2.4,2.4-3.9
	c0.6-1.5,0.8-3.3,0.8-5.2l0-1.4c0-1.9-0.3-3.6-0.9-5.1c-0.6-1.5-1.4-2.8-2.5-3.9c-1.1-1.1-2.3-1.9-3.7-2.5c-1.4-0.6-3-0.9-4.6-0.9
	c-1.6,0-3.1,0.3-4.5,1c-1.4,0.6-2.6,1.5-3.7,2.7c-1,1.1-1.9,2.5-2.5,4c-0.6,1.6-0.9,3.3-0.9,5.2l0,0.8c0,1.9,0.3,3.6,1,5.2
	c0.6,1.6,1.5,2.9,2.5,4c1.1,1.1,2.3,2,3.7,2.6C400.9,46.6,402.4,46.9,404,46.8z"/>
<path d="M451.8,15.9l5.5,0l0.3,34.7l-5.5,0l-0.1-6.3l-0.8,0c-1.1,2.2-2.6,4-4.4,5.4c-1.8,1.3-4.1,2-6.9,2c-1.9,0-3.7-0.3-5.3-0.9
	c-1.6-0.6-3-1.6-4.2-2.8c-1.2-1.3-2.1-2.8-2.7-4.7c-0.6-1.9-1-4-1-6.5l-0.2-20.7l5.5,0l0.2,20c0,3.6,0.8,6.3,2.3,8
	c1.5,1.7,3.8,2.5,6.9,2.5c3.3,0,5.9-1.2,7.8-3.5c1.9-2.3,2.8-5.3,2.8-9.1L451.8,15.9z"/>
<path d="M470.5,24.7c0,1.7,0.7,3,2.2,3.8c1.4,0.9,4,1.4,7.8,1.7c4.1,0.3,7.2,1.2,9.3,2.8c2.1,1.6,3.2,3.9,3.2,7l0,0.4
	c0,1.7-0.3,3.2-1,4.5c-0.7,1.3-1.6,2.5-2.8,3.4c-1.2,0.9-2.6,1.7-4.3,2.2c-1.7,0.5-3.6,0.8-5.6,0.8c-2.7,0-5-0.3-7-1
	c-1.9-0.7-3.6-1.7-4.9-2.8c-1.3-1.2-2.3-2.5-2.9-4c-0.7-1.5-1.1-3-1.2-4.6l5.2-1.3c0.3,2.7,1.3,4.8,3.1,6.4c1.8,1.6,4.3,2.4,7.3,2.4
	c2.6,0,4.6-0.5,6.2-1.6c1.6-1,2.3-2.4,2.3-4.3c0-2-0.8-3.4-2.3-4.2c-1.5-0.8-4-1.3-7.5-1.5c-4-0.2-7.1-1.2-9.3-2.7
	c-2.2-1.6-3.3-3.9-3.3-6.9l0-0.4c0-1.6,0.3-3.1,1-4.3c0.7-1.2,1.6-2.3,2.8-3.1c1.2-0.8,2.5-1.5,4-1.9c1.5-0.4,3.1-0.7,4.7-0.7
	c2.3,0,4.3,0.3,6,0.9c1.7,0.6,3.2,1.4,4.4,2.4c1.2,1,2.1,2.1,2.7,3.4c0.6,1.3,1.1,2.6,1.3,3.9l-5.2,1.3c-0.3-2.2-1.2-4-2.7-5.2
	c-1.6-1.2-3.6-1.9-6.1-1.8c-1,0-1.9,0.1-2.8,0.3c-0.9,0.2-1.7,0.5-2.4,1c-0.7,0.4-1.3,1-1.7,1.6C470.7,23.1,470.5,23.9,470.5,24.7z"
	/>
<path d="M498.8,45.2l12.2-0.1l-0.2-24.6l-10.9,0.1l0-5l16.4-0.1l0.2,29.7l11.3-0.1l0,5l-29,0.2L498.8,45.2z M508.4,5.1
	c0-1.4,0.5-2.5,1.4-3.5c0.9-1,2.1-1.5,3.5-1.5c1.4,0,2.5,0.5,3.5,1.4c1,0.9,1.5,2.1,1.5,3.5c0,1.4-0.5,2.5-1.4,3.5
	c-0.9,1-2.1,1.5-3.5,1.5c-1.4,0-2.5-0.5-3.5-1.4C508.9,7.6,508.4,6.4,508.4,5.1z"/>
<path d="M538.5,49.9l-5.5,0l-0.3-34.7l5.5,0l0,5.9l0.8,0c2.1-4.6,5.8-6.9,11.1-7c4,0,7.2,1.2,9.6,3.7c2.4,2.5,3.6,6.2,3.7,11.2
	l0.2,20.7l-5.5,0L558,30.1c0-3.6-0.9-6.4-2.5-8.2c-1.6-1.8-3.9-2.7-6.7-2.7c-3.3,0-5.9,1.2-7.8,3.5c-1.9,2.3-2.8,5.3-2.8,9.1
	L538.5,49.9z"/>
<path d="M575.1,33.9c0.2,3.5,1.3,6.2,3.3,8.3c2,2.1,4.8,3.1,8.4,3.1c1.6,0,3.1-0.2,4.3-0.6c1.2-0.4,2.2-0.9,3.1-1.6
	c0.9-0.7,1.6-1.4,2.1-2.3c0.5-0.9,1-1.8,1.3-2.8l5.2,1.4c-1,3.2-2.7,5.9-5.4,7.9c-2.6,2.1-6.2,3.1-10.6,3.1c-2.5,0-4.8-0.4-6.8-1.2
	c-2.1-0.8-3.9-2.1-5.4-3.6c-1.5-1.6-2.7-3.5-3.5-5.6c-0.9-2.2-1.3-4.6-1.3-7.3l0-1.7c0-2.4,0.4-4.7,1.2-6.8c0.8-2.1,2-3.9,3.6-5.5
	c1.5-1.5,3.3-2.7,5.4-3.6c2.1-0.9,4.3-1.3,6.7-1.4c2.8,0,5.3,0.5,7.4,1.5c2.1,1,3.8,2.3,5.1,3.8c1.3,1.5,2.3,3.2,3,5
	c0.6,1.8,1,3.5,1,5l0,4.5L575.1,33.9z M586.6,19c-1.5,0-3,0.3-4.3,0.8c-1.3,0.5-2.5,1.2-3.5,2.1c-1,0.9-1.8,1.9-2.4,3.1
	c-0.6,1.2-1,2.5-1.2,3.9l22.4-0.2c-0.1-1.5-0.5-2.8-1.1-4.1c-0.6-1.2-1.5-2.2-2.5-3.1c-1-0.8-2.2-1.5-3.4-1.9
	C589.2,19.2,587.9,19,586.6,19z"/>
<path d="M615.8,23.5c0,1.7,0.7,3,2.2,3.8c1.4,0.9,4,1.4,7.8,1.7c4.1,0.3,7.2,1.2,9.3,2.8c2.1,1.6,3.2,3.9,3.2,7l0,0.4
	c0,1.7-0.3,3.2-1,4.5c-0.7,1.3-1.6,2.5-2.8,3.4c-1.2,0.9-2.6,1.7-4.3,2.2c-1.7,0.5-3.6,0.8-5.6,0.8c-2.7,0-5-0.3-7-1
	c-1.9-0.7-3.6-1.7-4.9-2.8c-1.3-1.2-2.3-2.5-2.9-4c-0.7-1.5-1.1-3-1.2-4.6l5.2-1.3c0.3,2.7,1.3,4.8,3.1,6.4c1.8,1.6,4.3,2.4,7.3,2.4
	c2.6,0,4.6-0.5,6.2-1.6c1.6-1,2.3-2.4,2.3-4.3c0-2-0.8-3.4-2.3-4.2c-1.5-0.8-4-1.3-7.5-1.5c-4-0.2-7.1-1.2-9.3-2.7
	c-2.2-1.6-3.3-3.9-3.3-6.9l0-0.4c0-1.6,0.3-3.1,1-4.3c0.7-1.2,1.6-2.3,2.8-3.1c1.2-0.8,2.5-1.5,4-1.9c1.5-0.4,3.1-0.7,4.7-0.7
	c2.3,0,4.3,0.3,6,0.9c1.7,0.6,3.2,1.4,4.4,2.4c1.2,1,2.1,2.1,2.7,3.4c0.6,1.3,1.1,2.6,1.3,3.9l-5.2,1.3c-0.3-2.2-1.2-4-2.7-5.2
	c-1.6-1.2-3.6-1.9-6.1-1.8c-1,0-1.9,0.1-2.8,0.3c-0.9,0.2-1.7,0.5-2.4,1c-0.7,0.4-1.3,1-1.7,1.6C616,21.9,615.8,22.6,615.8,23.5z"/>
<path d="M651.6,23.2c0,1.7,0.7,3,2.2,3.8c1.4,0.9,4,1.4,7.8,1.7c4.1,0.3,7.2,1.2,9.3,2.8c2.1,1.6,3.2,3.9,3.2,7l0,0.4
	c0,1.7-0.3,3.2-1,4.5c-0.7,1.3-1.6,2.5-2.8,3.4c-1.2,0.9-2.6,1.7-4.3,2.2c-1.7,0.5-3.6,0.8-5.6,0.8c-2.7,0-5-0.3-7-1
	c-1.9-0.7-3.6-1.7-4.9-2.8c-1.3-1.2-2.3-2.5-2.9-4c-0.7-1.5-1.1-3-1.2-4.6l5.2-1.3c0.3,2.7,1.3,4.8,3.1,6.4c1.8,1.6,4.3,2.4,7.3,2.4
	c2.6,0,4.6-0.5,6.2-1.6c1.6-1,2.3-2.4,2.3-4.3c0-2-0.8-3.4-2.3-4.2c-1.5-0.8-4-1.3-7.5-1.5c-4-0.2-7.1-1.2-9.3-2.7
	c-2.2-1.6-3.3-3.9-3.3-6.9l0-0.4c0-1.6,0.3-3.1,1-4.3c0.7-1.2,1.6-2.3,2.8-3.1c1.2-0.8,2.5-1.5,4-1.9c1.5-0.4,3.1-0.7,4.7-0.7
	c2.3,0,4.3,0.3,6,0.9c1.7,0.6,3.2,1.4,4.4,2.4c1.2,1,2.1,2.1,2.7,3.4c0.6,1.3,1.1,2.6,1.3,3.9l-5.2,1.3c-0.3-2.2-1.2-4-2.7-5.2
	c-1.6-1.2-3.6-1.9-6.1-1.8c-1,0-1.9,0.1-2.8,0.3c-0.9,0.2-1.7,0.5-2.4,1c-0.7,0.4-1.3,1-1.7,1.6C651.8,21.6,651.6,22.4,651.6,23.2z"
	/>
</svg>
